<svg version="1.1" xmlns="http://www.w3.org/2000/svg" xmlns:xlink="http://www.w3.org/1999/xlink" width="1024" height="1024" viewBox="0 0 1024 1024"><path stroke="none" fill="black" fill-rule="evenodd" d="M507.0,722.9934855884285C473.2562703579914,719.0171557997376 462.4897914823955,716.6046865879081 436.3717263618298,707.167648970389C409.1477608290528,697.3310249461782 382.5019162819301,682.0676332088648 360.0,663.4200554177053C348.6539523337795,654.0174648193234 327.3435741670222,631.7445008385872 318.89593072819304,620.4593229901234C294.4692614064489,587.8278193598389 277.7054074088099,546.7611795777729 272.3764817931358,506.5C269.1833584296378,482.37526596850205 272.0421310374093,439.781664596162 278.61840179888105,413.5C289.6195020318795,369.5347745706688 308.0171694454497,337.09287917496687 340.4971789074124,304.3848187630455C357.61857683350496,287.1432068614539 369.4812443681991,277.69923698464754 387.9093877468942,266.6395586212283C418.48018265782474,248.29244941543425 446.0878330194759,238.08319366164017 482.0,231.84503203386757C494.1012803283882,229.74296610639485 498.5046570723513,229.50287259690887 524.5,229.52772539705904C546.9205744267953,229.5491605463099 556.0037424033084,229.94689828567107 564.5356943608642,231.2808259243222C577.5868430261827,233.32130716559257 603.2955464293899,240.51420873012825 617.8967439775658,246.2104305509544C664.3789602621365,264.34408115097705 708.4298943052487,300.8219280929047 734.980133522897,343.1652410686326C760.9374172180942,384.5628864342871 773.155994099595,425.77068471753336 773.3293480232932,472.5C773.5662096168602,536.3484543526533 751.8769947758025,593.4975803853008 709.7463403394266,640.0354938520622C683.0274649246433,669.5494126035543 644.4850185022658,694.680355959544 603.5,709.3116039253742C589.5828558321527,714.2798873308026 566.5791319730963,719.8958129721668 553.487489449672,721.5212158173206C538.6478429723754,723.363643424255 516.1797127145327,724.0752144164409 507.0,722.9934855884285zM460.3210257643565,688.5310869633095C461.87258993475257,686.0751516855627 466.090795200604,680.1134563233762 469.6948152440265,675.2828750473395C473.29883528744887,670.4522937713027 476.4499556407851,665.9767535867915 476.69730491810697,665.3372301928698C477.114928037105,664.2574625164345 472.5331936042586,657.7597332963918 458.12617178004746,639.0C454.9582714647321,634.875 450.6167736714122,628.9631974756126 448.47839890600324,625.862661056917C446.34002414059427,622.7621246382213 443.7624359079453,619.7082220103613 442.7504250556723,619.0762107727837C440.8741608815032,617.9044644025984 415.89604244608313,608.898992128183 401.5837623814836,604.2342105516257L393.6675247629672,601.6540822120579L390.2639285612137,605.5770411060289C385.7774946471544,610.7480704473782 370.808359631272,630.7592193067157 367.4656939171074,636.0543443509571L364.83006253926766,640.2294545502956L368.1650312696338,643.7149425362495C378.98282063513636,655.0209780395866 403.2494418779438,671.1141712760124 425.02772391369984,681.4252727675616C434.80288045515977,686.0533986697466 452.95808147719237,692.9299934838491 455.5,692.9671717228337C456.79725055446846,692.9861453802125 458.49123714586585,691.4274173276692 460.3210257643565,688.5310869633095zM604.6563192345086,687.8884529909981C628.9575933709353,679.311168720977 656.0914847591766,662.6540483387764 678.9593270450972,642.274864871569L683.4186540901944,638.3008369394161L669.5586848721076,619.900418469708C661.9357018021599,609.7801883113686 655.4032497742829,601.1592451424167 655.0421248101588,600.7427669831482C654.6809998460348,600.3262888238795 650.8112888238801,601.5040386807552 646.4427669831484,603.3599888873161C642.0742451424168,605.2159390938771 631.3,609.3625512791168 622.5,612.5746826322933C613.246786704225,615.9522436033146 605.7729434354454,619.2762075063969 604.7757858603136,620.4574607281252C603.8274680834861,621.5808573276563 600.4238482144842,626.1 597.2121861514206,630.5C594.0005240883569,634.9 586.9522447290487,644.4803461525951 581.5493431307357,651.789658116878L571.7258856792573,665.079316233756L574.1129428396287,667.7739349424527C575.4258242778329,669.2559752322359 580.4375,674.6551598149734 585.25,679.7721229040918C590.0625,684.8890859932102 594.0,689.5086614217015 594.0,690.0378460785171C594.0,691.4869159640368 595.0760014963054,691.2698850993055 604.6563192345086,687.8884529909981zM557.8598467204528,653.3390072331922C563.0525809543341,652.7154654675447 563.3304733400141,652.5208702602891 566.7727689238409,647.0976993284173C570.489704575641,641.241846194483 585.5199468085248,621.4762137851559 589.8385279540821,616.7649004839378L592.3456312703136,614.0298009678756L586.4228156351568,607.7460040596177C580.8164135125495,601.7979053014234 568.5760567642435,587.5376453268354 565.6955905064676,583.5983729925882C564.4682423728697,581.9198744043404 563.9167832615833,581.8849032310757 558.4336899061607,583.1378543812768C551.8682808045763,584.6381273753952 495.9613359073481,585.1210003573015 488.2847351593875,583.7437367992562L484.06947031877496,582.9874735985125L480.6744431823896,588.2437367992562C478.80717825737764,591.1346815596653 473.18434738244025,597.775 468.1792634603064,603.0C463.17417953817255,608.225 459.06131092782164,612.9780285035234 459.0395554373043,613.5622855633853C459.0177999467869,614.1465426232472 463.19022428580246,620.0600507702899 468.31160952400546,626.7034147790356C473.4329947622085,633.3467787877813 479.54666478860105,641.7344764080369 481.8975429159889,645.3427428240482C486.4903474312284,652.3920500997328 486.0242252915673,652.1606576399347 498.0,653.3363282739317C504.57621838612664,653.9819204821647 552.487933786148,653.9840647164167 557.8598467204528,653.3390072331922zM362.892565042837,614.25C369.0299940990186,606.1375 376.31182882754075,596.7127557399672 379.0744199951085,593.3061238665937L384.09731302704984,587.1122477331875L378.65161912361737,576.8061238665937C375.65648747672947,571.1377557399671 371.55312111355295,561.9378939507155 369.53302720544735,556.3619865571457L365.86012919070987,546.2239731142914L346.6800645953549,536.6690271512037C336.1310290679097,531.4138068715056 323.225,524.1958259888115 318.0,520.6290696341059C312.775,517.0623132794004 308.216861090768,514.4491450120743 307.8708024239289,514.8220290400479C307.52474375708977,515.1949130680216 306.6758103869661,517.3 305.9842838236539,519.5C305.2927572603418,521.7 303.581101182966,525.75 302.18060365170766,528.5C297.96208184577165,536.7834383548687 298.5664201333068,540.8267868482093 306.8887449580309,560.0C314.0846246295048,576.5780761579899 319.7990505991806,587.3699108698268 327.2750282645395,598.5C333.3407784197643,607.5305700325781 349.98123327600763,629.0 350.9148675097157,629.0C351.3651720967509,629.0 356.75513598665543,622.3625 362.892565042837,614.25zM701.1340137528014,619.5236376424393C712.7739394206736,606.1619316273732 728.5063186289879,579.9088326731668 736.6505724890151,560.2560774934987C743.4013581984901,543.9658757022854 743.9388400343328,541.8608500043076 742.768509273016,536.295427495467C741.7260605507149,531.3381386886014 736.5714456140944,519.0 735.5428432991253,519.0C735.2224203932183,519.0 733.1781409086119,520.125 731.0,521.5C728.821859091388,522.875 726.6505677677679,524.0 726.174908169733,524.0C725.6992485716981,524.0 722.4840525140405,525.8265448986015 719.030028041605,528.0589886635587C709.5492537023911,534.1867088721015 687.2945902103193,545.9910819579363 683.9688334918951,546.656233301621C681.4024853829073,547.1695029234185 680.2920505111734,548.7000320722934 675.1063610121164,558.8715129246602C671.8456806544118,565.2671808160972 667.7720811226159,574.038871508077 666.0539176081256,578.3641589068379C663.394871202807,585.0580153487007 663.1426678725185,586.3973476675858 664.3591702025774,587.3641589068379C665.1452226440163,587.9888715080771 667.5234762562976,590.7966073618048 669.6441782298695,593.6035719151218C671.7648802034413,596.4105364684387 677.325,603.5571155473997 682.0,609.4848587572571C686.675,615.4126019671147 691.625,621.768701675088 693.0,623.6095247749756L695.5,626.9564758656805L697.0,624.7518755752797C697.825,623.5393454155592 699.6853061887606,621.186638345781 701.1340137528014,619.5236376424393zM545.3444569866175,569.3362112994943L561.188913973235,568.6790851770678L566.0345601766992,558.589542588534C568.6996655886044,553.0402941648402 573.1724242901622,544.45 575.9740239579387,539.5C578.7756236257151,534.55 582.269483026496,528.1412460180652 583.7381559596738,525.2583244845894L586.4084703836337,520.0166489691787L583.3786448552387,516.7583244845894C581.7122408146214,514.9662460180652 578.8353407694958,511.475 576.9855336438486,509.0C575.1357265182015,506.525 569.5447421696616,499.3885922188916 564.5611239804268,493.1413160419812L555.5,481.7826320839625L523.0561669196024,482.50287618077755C491.2983814673643,483.20789021050746 490.57595450734266,483.2693691036287 488.89192125840526,485.41027045564067C472.01018214849216,506.8719239636888 463.0,519.090137636427 463.0,520.5208843277309C463.0,522.3827199398336 472.03379640489163,541.0521385650605 480.40964795615713,556.5L486.9160643322036,568.5L492.7080321661018,569.0818922787913C501.3782590289253,569.9529499592775 527.4378980447625,570.07886014214 545.3444569866175,569.3362112994943zM688.416067112691,525.6597555455181C697.5001933527441,520.0940155583652 709.0692046046158,513.5899905143626 720.7366128373873,507.4893489089749C725.8167498979502,504.83305242097754 730.1756122298449,501.94878217136835 730.4229735749309,501.07985946539895C731.0345292808997,498.931606921345 733.7100898903642,476.1558217837059 735.0506132859866,461.6869459277352L736.145078088592,449.87389185547045L732.1268105447512,444.6869459277352C724.4750312101097,434.80971271050413 712.4934457282218,420.67163835271504 711.0,419.7576559872565C709.9142924122846,419.0932076109516 706.9259993693325,420.38595215095165 700.1804932180376,424.4382070968152C695.0547644879581,427.51740666045816 688.663225919082,431.15044129426394 685.9770741760906,432.51161739416136C681.7338400700974,434.66182684022755 681.0128178142324,435.47929964188415 680.4806959818242,438.7432415151692C678.0230933017328,453.8177447715822 674.3373637401097,469.62839749926053 670.3968166990652,482.0C664.2772727203146,501.2127044296945 664.3175619908488,500.8559244029878 667.4960993129474,507.68718700453826C676.130117879976,526.243284404424 678.1872800802972,530.0 679.7145050743943,530.0C680.6042011074376,530.0 684.5199040246711,528.0468899954832 688.416067112691,525.6597555455181zM369.76564563060936,526.25C370.8116543591465,524.7375 374.22015367698185,518.468064205743 377.3400885591324,512.3179204572066L383.01269743576984,501.13584091441317L381.03152594531423,497.7780053124701C376.5752603490033,490.2251976211148 364.7405556306446,450.66783595647917 363.40472062656755,438.8606153496991C362.7571709088318,433.13703246122236 362.7002880802215,433.0528937672841 357.71660901745963,430.44699926452785C354.94789758504066,428.99927965606247 349.158927279834,425.60645589080787 344.8522305614448,422.9073908972954C340.5455338430555,420.2083259037829 336.6794514910258,418.00131826799384 336.26093644582306,418.0029294844307C335.84242140062037,418.00454070086755 332.125,421.9158164282271 328.0,426.69465332300746C323.875,431.4734902177878 317.9125,438.2675465846616 314.75,441.79255636050476L309.0,448.201665043856L309.0,456.08969225267515C309.0,468.00946216968174 311.94799009537496,491.91582142120944 314.0022395304022,496.6547319601027C315.5743687542059,500.2814481807095 317.24549558866613,501.67369916167803 327.1516279845147,507.60976457454063C341.4593365543589,516.1833925642455 365.12223323866885,528.9833229985564 366.68190578936185,528.9928104755325C367.33195397351085,528.9967647139896 368.7196369020722,527.7625 369.76564563060936,526.25zM635.5,499.93879263379046C651.4210390748992,492.97810242605374 651.0859621787235,493.23490211963707 653.6623251822184,486.0193622141293C656.2675784915346,478.7229101257293 661.8552488496398,457.41990314574457 665.0097690611012,442.75720452328136L667.1058255946755,433.0144090465627L664.0788717871634,429.25720452328136C662.4140471930317,427.1907420354766 656.5402364342298,421.4786577961166 651.0259589898257,416.56368399137017C645.5116815454215,411.64871018662376 641.0,407.3031134355519 641.0,406.9068023223216C641.0,406.51049120909124 638.7282922114937,404.2842553760278 635.9517604699861,401.9596115821805L630.9035209399722,397.7329865024583L620.2017604699861,402.8045424237935C614.3157922114938,405.5938981805279 603.3016258628376,410.314850354637 595.72583525075,413.2955472551471C588.1500446386625,416.27624415565714 581.7653213676748,418.901345298991 581.5375613152219,419.1291053514444C581.3098012627688,419.3568654038979 579.0703835767315,427.18349126673576 576.5610775684722,436.52160726886177C574.051771560213,445.8597232709878 570.8254406097012,457.76022618506767 569.3914532340016,462.9671693001504C567.8346309682944,468.6201374609586 567.1298396744952,472.91612511537244 567.6421017300011,473.63017341290845C568.1139457785005,474.28788255984267 574.7313061381005,483.35573996953644 582.3473469735568,493.7809676566723L596.1946939471135,512.7359270878285L611.3473469735568,508.3047632311208C619.6813061381006,505.86762310993157 630.55,502.10293634113293 635.5,499.93879263379046zM464.9874032488909,494.0C471.73103111284735,484.925 478.3506379779014,476.31591550281274 479.6976407267888,474.8687011173617L482.1467366338568,472.2374022347234L477.42339679542226,457.3687011173617C474.82555988428334,449.19091550281274 471.25452803272265,436.8801629578345 469.48777045862084,430.0114732396322L466.2754839602539,417.52294647926436L462.387741980127,416.38521260019047C456.66437451909667,414.71028944528734 432.6038508638699,404.51636942877076 424.33160532539523,400.261656074367C418.01346930306596,397.01201151484395 416.88665394714917,396.7236610808731 414.83160532539523,397.8306196953019C412.1048053646184,399.29941935018786 381.12652238877564,427.39677190021115 379.17191282637106,430.17401822232256C378.05721318159885,431.75786163956957 378.1187308627664,433.30136691102086 379.5547882631306,439.7805288015763C384.0834727533282,460.21291538709653 390.6375366229503,483.2574831685781 393.5780021019575,489.0871739993583C394.40455358878944,490.7258736060542 397.06918886151954,492.65546953151863 400.8463850427233,494.3505743043641C408.52117016410267,497.7948129050892 448.9948367305016,510.9570719489209 451.11313083903053,510.69759659294294C452.00035280049735,510.58891846682434 458.2437753849345,503.075 464.9874032488909,494.0zM306.08578595793625,428.0253280696412C308.6079682348012,424.98639763133855 314.7187409487553,418.20490686923074 319.6652808778342,412.95534859829047C328.1913253902398,403.9070101374228 328.7240223177409,403.0801434450109 329.90963692290586,397.0537798796297C330.5974928186162,393.5574753553065 334.23412945706673,381.7166992599357 337.99105167501796,370.740944112139C343.4462494476956,354.8037190214458 345.7834451659566,349.3903262349421 349.59703475961686,343.85926508989644L354.3722501752134,336.93350451819333L352.12845727693366,329.96675225909667C350.89437118287975,326.1350385165935 349.4690233902971,323.0 348.961017737861,323.0C346.0592634581699,323.0 323.1272488179781,355.91233878441943 315.48875391414646,371.03984752899794C309.1516602676074,383.5900214520236 301.66808173349307,405.5486337525447 295.6476924120396,429.2582754067139C294.22896253153255,434.8455514572871 294.2496037811763,435.0618589311198 296.3427710536783,436.5422677852252C298.33739557079025,437.9529815081751 298.61306479278915,437.89773448231415 300.0,435.80932044815245C300.825,434.5670550782739 303.5636036810713,431.0642585079438 306.08578595793625,428.0253280696412zM751.0,434.27102550613597C751.0,433.3200895345107 748.985459486831,425.5365277131468 746.523243304069,416.9742214586606C740.4667254641174,395.91280494110237 732.911654662572,378.0319365831149 722.6616090120331,360.5C717.3553426926416,351.4240282652011 705.093501319842,333.73346750681685 700.1564378977139,328.0310514243918L696.2872915167604,323.56210284878364L694.1436457583802,328.40816964200064C692.9646405912711,331.07350637827 692.0,333.62215874270817 692.0,334.0718415629743C692.0,334.52152438324055 694.425347989126,339.5268211853166 697.3896621980576,345.19472334536556C702.2211134630022,354.4326755766911 711.2561923845902,379.5817039473092 716.4752786503749,398.3192963342309C717.9181899085924,403.4996443166406 719.3099443946236,405.4211130844533 729.1508442976224,415.8192963342309C735.2309207922962,422.2436833504039 741.5855687528003,429.4125 743.2722842098538,431.75C746.5311885507865,436.2662856989747 751.0,437.7241534507811 751.0,434.27102550613597zM478.343371434092,396.01223133357155C483.37951714534137,392.1689585670359 490.425,386.7685797273069 494.0,384.01138946750723C497.575,381.2541992077075 504.2648870373883,376.45964711114186 508.8664156386406,373.35682925291695L517.2328312772812,367.71534223796255L516.6164156386405,363.21809985349347C516.2773870373883,360.7446165420355 516.0,349.7695413801414 516.0,338.82904393817324C516.0,320.767314108003 515.8389967575745,318.8850199977531 514.25,318.3697373843911C513.2875,318.0576162217791 503.5348476660057,313.72656165447466 492.5774392577904,308.74517167927013L472.6548785155808,299.68809899708003L467.6878907676935,302.4801792388224C464.9560475063555,304.0158233717807 455.37477048937797,310.0485010974377 446.396164063299,315.8861297402824C437.41755763722,321.72375838312706 427.2428544577636,328.3 423.78571255339585,330.5C416.01495839656263,335.4450267353604 416.0792746075965,335.04976466069945 418.6007479547467,362.3647481149824C420.0610092369243,378.1836790613254 420.74665682737157,382.3359383495654 421.9672413260871,382.75212140222476C426.36500441109513,384.25162796446386 452.62625122551077,395.4077891727786 460.0,398.9089927785751C464.675,401.128776413424 468.6545171453414,402.9573463434101 468.843371434092,402.9724815118775C469.03222572284255,402.98761668034484 473.3072257228426,399.85550410010717 478.343371434092,396.01223133357155zM587.7749641322896,399.6414637550696C591.4737338595303,397.7942688203579 601.4087835677883,393.4268286592537 609.8528523728629,389.9360411748381C620.8658927853386,385.38323795583426 625.4223172853137,383.0112113196779 625.9720099158021,381.5445774197685C627.0807220038182,378.5864247298208 630.0,348.70731466300714 630.0,340.3176852802757L630.0,333.1835389123653L623.6101489797497,329.67123611603824C620.095730918612,327.7394695780584 608.733230918612,320.5609973318031 598.3601489797497,313.7190755688043C578.0431609309811,300.318309672155 575.52584657405,298.80748675928186 574.7715104833626,299.56182284997067C574.0510304056721,300.28230292766244 552.7145675585136,309.6309686069442 544.0,313.0444964316314C539.875,314.6602739423672 535.0994391592596,316.8419803891134 533.3876425761325,317.89273297995624L530.275285152265,319.803192236034L530.7832891027219,343.58870965871824L531.2912930531787,367.3742270814024L534.2844913061932,369.9371135407012C538.6996758860037,373.71755700564876 579.3695581783425,402.92473771457225 580.2749641322896,402.96529004402163C580.7011944050489,402.98438051980975 584.0761944050489,401.48865868978135 587.7749641322896,399.6414637550696zM384.0632737961177,327.48711331810307C390.84934444383333,326.1050256430597 399.3096917422673,324.50965419796904 402.8640455704155,323.9418434401238C407.32717115656203,323.22885569496486 410.43616336258737,322.04280473383443 412.91325353806974,320.10816616504513C418.3012464628002,315.9000759535058 448.32866573578303,296.1025341703846 457.8884886540537,290.45529828720095C467.3127039325605,284.88816936163096 467.3407834946523,284.8452232547406 472.15744194514866,268.631738815428C473.78330321273893,263.1588831762993 475.79618517602296,257.3610277910225 476.6305129746688,255.74761573703503C477.4648407733147,254.1342036830476 477.9554433359436,252.62211000261183 477.720740891622,252.3874075582889C476.92786468217975,251.5945313488424 451.5850983084364,258.81348996764393 439.4062989238811,263.3013846272706C432.7547633320156,265.75247936316924 422.1797633320156,270.3829982881376 415.9062989238811,273.5914266827559C402.810195477751,280.2891470206507 377.8382123739432,296.5385571573043 370.1561932405674,303.3612782781646C367.28356931022284,305.91257522517407 364.4501165340713,308.0 363.85963151578613,308.0C363.24796632587686,308.0 363.0749923342459,308.7529759823587 363.4576207047561,309.75C363.8269997769747,310.7125 364.7502081801875,314.7454892682539 365.5091949341179,318.7121983738975C367.05747466531614,326.80400666438914 368.44158114933714,330.0 370.3976655222599,330.0C371.12767942516604,330.0 377.27720314840207,328.86920099314636 384.0632737961177,327.48711331810307zM680.1363631577717,319.56089169442544C681.6866776181986,314.09438212635945 682.8527154596928,309.531500693793 682.7275583610922,309.4211551776111C662.2854143554031,291.3982147500006 636.0905503447676,275.3595776079615 610.5,265.19753944367693C598.2904701693818,260.34912053766925 572.0,252.87194857737612 572.0,254.24790185193302C572.0,255.7642938063127 578.6520006347329,275.32029069823017 581.1164594321656,281.049079739656C583.1493233474166,285.7745994085305 583.9980407555597,286.51753286251454 594.3940695859243,292.67177143601975C606.6442964739724,299.9236577167134 626.3164101251081,313.1648717625768 634.5790465424525,319.7201044593888C639.6002670486799,323.7037323449424 640.7277124919409,324.1058616847344 654.6991686571255,326.89640861749217C662.8396258957065,328.5223184517852 671.2589621585058,329.7732714450603 673.4088047966796,329.67630415810345L677.3176095933593,329.5L680.1363631577717,319.56089169442544z"/></svg>